<?xml version="1.0" encoding="UTF-8"?>
<svg xmlns="http://www.w3.org/2000/svg" width="350" height="24" viewBox="0 0 350 24" fill="none">
  <path d="M9.38599 5.44604H18.259L19.092 0.353088H3.62L0 23.2531H6.59998L7.849 15.1531H14.961L15.729 10.3161H8.61798L9.38599 5.44604ZM38.141 6.8551C38.174 2.8191 35.322 0.355103 29.748 0.355103H21.04L17.42 23.2551H23.955L25.236 15.0551H26.774L30.522 23.2551H37.185L32.86 13.8051C34.4234 13.465 35.8143 12.5782 36.7822 11.3041C37.7501 10.0301 38.2315 8.4525 38.14 6.8551H38.141ZM28.241 10.7961H25.94L26.805 5.28607H28.887C30.777 5.28607 31.77 6.05507 31.738 7.65607C31.734 9.83407 30.453 10.7961 28.24 10.7961H28.241ZM52.061 0.0321045C44.373 0.0321045 38.961 5.67007 38.961 13.6141C38.961 20.0211 43.961 23.6411 50.045 23.6411C57.925 23.6411 63.307 18.1311 63.307 10.1551C63.306 3.62009 58.405 0.0321045 52.063 0.0321045H52.061ZM50.491 18.4841C47.384 18.4841 45.782 16.4011 45.782 13.3581C45.782 9.09709 47.865 5.12508 51.869 5.15808C55.069 5.19008 56.481 7.49609 56.481 10.3791C56.483 14.5751 54.465 18.4841 50.493 18.4841H50.491ZM79.157 13.2301L74.064 0.352051H66.564L62.944 23.2521H68.806L71.049 8.87006L77.007 23.2521H83.413L86.233 5.4101H92.879L90.092 23.2521H96.692L99.479 5.4101H105.405L106.238 0.348083H81.209L79.157 13.2301ZM123.383 0.0300903C115.695 0.0300903 110.283 5.66806 110.283 13.6121C110.283 20.0191 115.283 23.6391 121.366 23.6391C129.246 23.6391 134.628 18.1291 134.628 10.1531C134.629 3.62008 129.728 0.0321045 123.385 0.0321045L123.383 0.0300903ZM121.814 18.4821C118.706 18.4821 117.105 16.3991 117.105 13.3561C117.105 9.09508 119.187 5.12307 123.192 5.15607C126.392 5.18807 127.805 7.49408 127.805 10.3771C127.806 14.5751 125.788 18.4841 121.816 18.4841L121.814 18.4821ZM144.451 5.44409H153.324L154.157 0.351074H138.687L135.068 23.2511H141.668L142.918 15.1511H150.03L150.799 10.3141H143.687L144.451 5.44409ZM161.868 5.44409H170.74L171.573 0.351074H156.104L152.484 23.2511H159.084L160.333 15.1511H167.44L168.209 10.3141H161.098L161.868 5.44409ZM169.958 23.2541H176.588L180.209 0.354065H173.58L169.958 23.2541ZM193.282 5.12305C195.621 5.12305 196.709 6.43707 196.934 8.80707H203.534C203.31 2.91207 199.434 -0.00195312 193.476 -0.00195312C185.531 -0.00195312 180.662 5.73106 180.662 13.5471C180.662 20.1781 185.083 23.6381 191.842 23.6381C197.416 23.6381 202.029 20.5951 202.958 14.6381H196.458C195.817 17.1381 194.184 18.4491 191.909 18.4491C188.77 18.4491 187.521 16.2381 187.521 13.2911C187.583 8.90608 189.473 5.1261 193.284 5.1261L193.282 5.12305ZM203.805 23.2541H220.14L220.94 18.1931H211.14L211.812 13.9641H219.212L219.917 9.35205H212.549L213.158 5.41205H222.415L223.215 0.350098H207.423L203.805 23.2541ZM239.618 8.87207C237.087 8.32707 236.382 7.84706 236.382 6.78906C236.382 5.54006 237.247 4.70605 239.04 4.70605C240.77 4.70605 241.795 5.4431 241.924 7.1731H247.914C247.946 2.2731 244.647 0.0300903 239.233 0.0300903C233.403 0.0300903 230.04 3.33007 230.04 7.62207C230.04 11.4341 232.057 13.2281 237.632 14.4131C240.067 14.9261 240.867 15.5021 240.867 16.6241C240.867 18.1291 239.842 18.9941 237.856 18.9631C235.23 18.9631 234.301 17.5531 234.236 15.9831H228.053C228.021 20.7561 231.481 23.6391 237.695 23.6391C243.942 23.6071 247.306 20.3391 247.306 15.6631C247.308 11.7261 244.777 9.99408 239.62 8.87408L239.618 8.87207ZM259.605 0.351074H251.372L247.753 23.2511H254.353L255.571 15.4991H258.486C264.253 15.4991 268.097 12.5841 268.097 6.88208C268.065 2.85108 265.086 0.352051 259.608 0.352051L259.605 0.351074ZM258.227 11.0511H256.24L257.14 5.22107H258.902C260.856 5.22107 261.849 6.05409 261.849 7.62109C261.85 9.86609 260.569 11.0521 258.23 11.0521L258.227 11.0511ZM281.451 0.0310669C273.764 0.0310669 268.351 5.6691 268.351 13.6131C268.351 20.0201 273.351 23.6401 279.435 23.6401C287.315 23.6401 292.696 18.1301 292.696 10.1541C292.698 3.62005 287.797 0.0321045 281.454 0.0321045L281.451 0.0310669ZM279.882 18.4831C276.775 18.4831 275.173 16.4001 275.173 13.3571C275.173 9.09606 277.255 5.1241 281.259 5.1571C284.459 5.1891 285.872 7.49505 285.872 10.3781C285.875 14.5751 283.857 18.4841 279.885 18.4841L279.882 18.4831ZM313.063 6.85406C313.096 2.81807 310.244 0.354065 304.671 0.354065H295.958L292.338 23.2541H298.873L300.154 15.0541H301.692L305.439 23.2541H312.102L307.778 13.8041C309.343 13.4657 310.735 12.5797 311.705 11.3057C312.674 10.0317 313.157 8.45345 313.066 6.8551L313.063 6.85406ZM303.163 10.795H300.857L301.722 5.2851H303.804C305.694 5.2851 306.687 6.05409 306.655 7.65509C306.66 9.83409 305.378 10.7961 303.168 10.7961L303.163 10.795ZM341.698 8.87305C339.167 8.32805 338.462 7.8481 338.462 6.7901C338.462 5.5411 339.327 4.70709 341.121 4.70709C342.85 4.70709 343.875 5.44407 344.004 7.17407H349.994C350.026 2.27407 346.726 0.0310669 341.313 0.0310669C340.322 0.0254648 339.333 0.132831 338.366 0.351074H314.512L313.679 5.41309H319.605L316.818 23.2551H323.418L326.204 5.41309H332.446C332.228 6.12935 332.117 6.8742 332.119 7.62305C332.119 11.435 334.136 13.2291 339.711 14.4141C342.146 14.9271 342.946 15.5031 342.946 16.6251C342.946 18.1301 341.921 18.9951 339.935 18.9641C337.309 18.9641 336.38 17.5541 336.316 15.9841H330.14C330.108 20.7571 333.568 23.6401 339.782 23.6401C346.029 23.6081 349.393 20.3401 349.393 15.6641C349.391 11.7261 346.86 9.99408 341.703 8.87408L341.698 8.87305Z" fill="black"></path>
</svg>
