<svg xmlns="http://www.w3.org/2000/svg" width="1030" height="240" fill="none" viewBox="0 0 103 24" role="img" aria-labelledby="opusclip-title">
  <title id="opusclip-title">OpusClip</title>
  <path fill="#111111" d="M11.954 3.817c-4.49 0-8.132 3.644-8.152 8.146v12H0V12C0 5.373 5.352 0 11.954 0s11.953 5.373 11.953 12-5.351 12-11.953 12a12 12 0 0 1-1.718-.123v-3.876q.831.181 1.718.182c4.502 0 8.152-3.663 8.152-8.183s-3.65-8.183-8.152-8.183"/>
  <path fill="#111111" d="M5.118 24V11.995c0-3.79 3.062-6.857 6.836-6.857 3.773 0 6.836 3.068 6.836 6.857s-3.063 6.857-6.836 6.857c-.594 0-1.17-.076-1.718-.218V14.5c.488.337 1.08.534 1.718.534a3.037 3.037 0 0 0 3.034-3.04 3.037 3.037 0 0 0-3.034-3.04 3.037 3.037 0 0 0-3.034 3.008V24zM90.962 5.524c.857 0 1.477.607 1.477 1.433s-.622 1.434-1.477 1.434c-.854 0-1.46-.607-1.46-1.434 0-.826.637-1.433 1.46-1.433M90.805 9.4h1.417v8.493h-2.484V10.47a1.07 1.07 0 0 1 1.067-1.07"/>
  <path fill="#111111" fill-rule="evenodd" d="M37.913 5.962c-3.49 0-6.076 2.562-6.076 6.033s2.634 6.034 6.076 6.034 6.028-2.563 6.028-6.034-2.537-6.033-6.028-6.033m3.374 6.033c0 2.158-1.426 3.758-3.374 3.758-1.999 0-3.409-1.6-3.409-3.758s1.463-3.758 3.41-3.758c1.945 0 3.373 1.6 3.373 3.758M46.716 9.4h-1.417l.018 11.56h2.484V17c.453.624 1.394 1.028 2.384 1.028 2.468 0 4.13-1.684 4.13-4.382s-1.662-4.382-4.13-4.382c-.992 0-1.933.582-2.402 1.206a1.07 1.07 0 0 0-1.067-1.07m5.096 4.228c0 1.364-.824 2.276-2.015 2.276-1.19 0-1.996-.93-1.996-2.276 0-1.347.805-2.258 1.996-2.258s2.015.894 2.015 2.258" clip-rule="evenodd"/>
  <path fill="#111111" d="M55.607 14.862v-5.46h2.468v4.853c0 .994.571 1.6 1.461 1.6 1.158 0 1.83-.993 1.83-2.764V9.4h2.485v8.493h-2.484v-.944c-.403.54-1.36 1.077-2.619 1.077-1.846 0-3.139-1.213-3.139-3.168zM67.41 15.027h-2.216v.003c.1 1.735 1.392 3 3.542 3 1.945 0 3.34-1.147 3.34-2.732 0-2.096-1.696-2.49-3.01-2.795-.829-.193-1.506-.35-1.506-.878 0-.369.368-.589.873-.589.706 0 1.208.37 1.343.994h2.216c-.22-1.703-1.494-2.765-3.56-2.765-1.912 0-3.088 1.114-3.088 2.511 0 1.902 1.593 2.302 2.876 2.624.865.217 1.59.4 1.59.983 0 .471-.404.758-1.074.758-.806 0-1.242-.405-1.326-1.114M73.05 11.995c0-3.842 2.586-6.033 5.944-6.033 2.904 0 4.985 1.82 5.186 4.382h-2.652c-.168-1.247-1.175-2.107-2.534-2.107-1.864 0-3.274 1.332-3.274 3.758s1.428 3.758 3.274 3.758c1.326 0 2.366-.876 2.568-2.14h2.67c-.269 2.511-2.25 4.416-5.238 4.416-3.292 0-5.944-2.174-5.944-6.034M87.972 5.962h-2.484v11.933h2.484z"/>
  <path fill="#111111" fill-rule="evenodd" d="M95.4 9.4h-1.416l.018 11.56h2.483V17c.454.624 1.395 1.028 2.384 1.028 2.469 0 4.131-1.684 4.131-4.382s-1.662-4.382-4.13-4.382c-.992 0-1.933.582-2.402 1.206A1.07 1.07 0 0 0 95.4 9.4m5.096 4.228c0 1.364-.823 2.276-2.014 2.276s-1.997-.93-1.997-2.276c0-1.347.806-2.258 1.997-2.258 1.19 0 2.014.894 2.014 2.258" clip-rule="evenodd"/>
</svg>
